{"title":"Adele - Rolling In The Deep( Live At The Royal Albert Hall)","uid":7250119,"size":550936768,"categoryP":"video","categoryS":"music_videos","magnet":"?xt=urn:btih:e3477a98415536eb8602032c93efdc095067fd61&amp;dn=Adele+-+Rolling+In+The+Deep%28+Live+At+The+Royal+Albert+Hall%29&amp;tr=udp%3A%2F%2Ftracker.openbittorrent.com%3A80&amp;tr=udp%3A%2F%2Fopen.demonii.com%3A1337&amp;tr=udp%3A%2F%2Ftracker.coppersurfer.tk%3A6969&amp;tr=udp%3A%2F%2Fexodus.desync.com%3A6969","seeders":1,"leechers":0,"uploader":"Banshan","files":1,"time":1336426755,"description":"------------------------------------------------------------\n                   Source file MediaInfo\n------------------------------------------------------------\n\nAdele - Rolling In The Deep( Live At The Royal Albert Hall).mp4\n\nGeneral\nComplete name                            : Adele - Rolling In The Deep( Live At The Royal Albert Hall).mp4\nFormat                                   : MPEG-4\nFormat profile                           : Base Media\nCodec ID                                 : isom\nFile size                                : 525 MiB\nDuration                                 : 4mn 35s\nOverall bit rate mode                    : Variable\nOverall bit rate                         : 16.0 Mbps\n\n\nVideo\nID                                       : 1\nFormat                                   : AVC\nFormat/Info                              : Advanced Video Codec\nFormat profile                           : &lt;a class=&quot;__cf_email__&quot; href=&quot;/cdn-cgi/l/email-protection&quot; data-cfemail=&quot;b5fddcd2ddf5f9819b85&quot;&gt;[email&amp;#160;protected]&lt;/a&gt;&lt;script cf-hash='f9e31' type=&quot;text/javascript&quot;&gt;\n/* &lt;![CDATA[ */!function(){try{var t=&quot;currentScript&quot;in document?document.currentScript:function(){for(var t=document.getElementsByTagName(&quot;script&quot;),e=t.length;e--;)if(t[e].getAttribute(&quot;cf-hash&quot;))return t[e]}();if(t&amp;&amp;t.previousSibling){var e,r,n,i,c=t.previousSibling,a=c.getAttribute(&quot;data-cfemail&quot;);if(a){for(e=&quot;&quot;,r=parseInt(a.substr(0,2),16),n=2;a.length-n;n+=2)i=parseInt(a.substr(n,2),16)^r,e+=String.fromCharCode(i);e=document.createTextNode(e),c.parentNode.replaceChild(e,c)}}}catch(u){}}();/* ]]&gt; */&lt;/script&gt;\nFormat settings, CABAC                   : Yes\nFormat settings, ReFrames                : 4 frames\nCodec ID                                 : avc1\nCodec ID/Info                            : Advanced Video Coding\nDuration                                 : 4mn 35s\nBit rate                                 : 14.9 Mbps\nMaximum bit rate                         : 47.2 Mbps\nWidth                                    : 1 904 pixels\nHeight                                   : 816 pixels\nDisplay aspect ratio                     : 2.35:1\nFrame rate mode                          : Constant\nFrame rate                               : 29.970 fps\nColor space                              : YUV\nChroma subsampling                       : 4:2:0\nBit depth                                : 8 bits\nScan type                                : Progressive\nBits/(Pixel*Frame)                       : 0.320\nStream size                              : 489 MiB (93%)\nTitle                                    : Video\n\n\nAudio\nID                                       : 2\nFormat                                   : AAC\nFormat/Info                              : Advanced Audio Codec\nFormat profile                           : LC\nCodec ID                                 : 40\nDuration                                 : 4mn 35s\nBit rate mode                            : Variable\nBit rate                                 : 1 112 Kbps\nMaximum bit rate                         : 1 153 Kbps\nChannel(s)                               : 6 channels\nChannel positions                        : Front: L C R, Side: L R, LFE\nSampling rate                            : 48.0 KHz\nCompression mode                         : Lossy\nStream size                              : 36.5 MiB (7%)\nLanguage                                 : English\n\n","torrent":{"xt":"urn:btih:e3477a98415536eb8602032c93efdc095067fd61","amp;dn":"Adele+-+Rolling+In+The+Deep%28+Live+At+The+Royal+Albert+Hall%29","amp;tr":["udp%3A%2F%2Ftracker.openbittorrent.com%3A80","udp%3A%2F%2Fopen.demonii.com%3A1337","udp%3A%2F%2Ftracker.coppersurfer.tk%3A6969","udp%3A%2F%2Fexodus.desync.com%3A6969"],"infoHash":"e3477a98415536eb8602032c93efdc095067fd61","infoHashBuffer":{"type":"Buffer","data":[227,71,122,152,65,85,54,235,134,2,3,44,147,239,220,9,80,103,253,97]},"announce":[],"urlList":[]}}